<?xml version="1.0" standalone="no"?>
<!DOCTYPE svg PUBLIC "-//W3C//DTD SVG 20010904//EN"
 "http://www.w3.org/TR/2001/REC-SVG-20010904/DTD/svg10.dtd">
<svg version="1.0" xmlns="http://www.w3.org/2000/svg"
 width="1000.000000pt" height="1000.000000pt" viewBox="0 0 1000.000000 1000.000000"
 preserveAspectRatio="xMidYMid meet">

<g transform="translate(0.000000,1000.000000) scale(0.100000,-0.100000)"
fill="#4c6586" stroke="none">
<path d="M4810 8013 c-731 -75 -1347 -443 -1752 -1047 -193 -288 -310 -595
-370 -971 -20 -127 -17 -515 6 -650 81 -493 278 -899 605 -1249 203 -218 375
-489 461 -723 l22 -63 1218 0 1217 0 11 38 c22 72 100 241 155 335 74 124 155
233 260 344 213 229 335 399 446 626 111 226 168 400 212 647 27 149 37 473
19 632 -41 384 -165 727 -377 1047 -436 657 -1175 1049 -1962 1039 -75 0 -152
-3 -171 -5z m-126 -807 c44 -18 92 -79 100 -125 14 -91 -43 -162 -160 -201
-332 -109 -628 -400 -745 -730 -30 -86 -51 -114 -102 -139 -56 -27 -93 -26
-147 2 -50 26 -90 90 -90 143 0 72 98 294 195 439 181 273 459 489 769 596 91
32 132 35 180 15z m480 -3026 c183 -57 326 -212 371 -403 8 -34 15 -79 15 -99
l0 -38 -164 0 -163 0 -7 41 c-19 118 -101 189 -219 189 -106 0 -195 -78 -205
-179 l-5 -51 -169 0 -170 0 6 58 c16 136 66 246 149 333 151 157 356 212 561
149z"/>
<path d="M3874 2935 c3 -22 9 -97 13 -167 l6 -128 1107 0 1107 0 6 118 c4 64
9 140 13 167 l6 50 -1132 0 -1132 0 6 -40z"/>
<path d="M3930 2300 c0 -30 60 -122 114 -175 67 -66 157 -116 244 -134 35 -7
273 -11 719 -11 720 0 725 0 834 55 87 45 202 170 235 258 6 16 -49 17 -1070
17 -734 0 -1076 -3 -1076 -10z"/>
</g>
</svg>
